# xmcd
#
# Track frame offsets:
#	150
#	12927
#	29570
#	44212
#	59417
#	73477
#	92005
#	104032
#	118535
#	132740
#	144695
#	160737
#	175607
#	189742
#
# Disc length: 2702
#
# Revision: 3
# Processed by: cddbd v1.5.1PL0 Copyright (c) Steve Scherf et al.
# Submitted via: ExactAudioCopy v0.90b3
# Normalized: r2:DSETVAR1
#
DISCID=db0a8c0e
DTITLE=Various Artist - 30 Years Of Hits (1975-1988)
DYEAR=1983
DGENRE=Country
TTITLE0=Tanya Tucker - San Antonio Stroll
TTITLE1=Olivia Newton-John - Come On Over
TTITLE2=Merle Haggard - If We're Not Back In Love By Monday
TTITLE3=John Conlee - Rose Colored Glasses
TTITLE4=Barbara Mandrell - (If Loving You Is Wrong) I Don't Want To Be Right
TTITLE5=Don Williams - I Believe In You
TTITLE6=Oak Ridge Boys - Elvira
TTITLE7=Gene Watson - This Dream's On Me
TTITLE8=Lee Greenwood - I.O.U.
TTITLE9=John Schneider - I've Been Around Enough To Know
TTITLE10=Reba McEntire - Somebody Should Leave
TTITLE11=Steve Wariner - Life's Highway
TTITLE12=George Strait - Ocean Front Property
TTITLE13=Waylon Jennings - If Ole Hank Could Only See Us Now
EXTD=
EXTT0=
EXTT1=
EXTT2=
EXTT3=
EXTT4=
EXTT5=
EXTT6=
EXTT7=
EXTT8=
EXTT9=
EXTT10=
EXTT11=
EXTT12=
EXTT13=
PLAYORDER=
